<svg width="31" height="31" viewBox="0 0 31 31" fill="none" xmlns="http://www.w3.org/2000/svg">
<rect x="0.376831" y="0.376831" width="30" height="30" rx="15" fill="#38BF84"/>
<path d="M11.6591 11.7675V18.8768H10.1942L7.33777 14.1112V18.8768H5.87292V11.7675H7.33777L10.1991 16.538V11.7675H11.6591ZM18.204 17.7343V18.8768H14.4198V17.7343H18.204ZM14.8983 11.7675V18.8768H13.4335V11.7675H14.8983ZM17.7108 14.663V15.7762H14.4198V14.663H17.7108ZM18.1991 11.7675V12.9149H14.4198V11.7675H18.1991ZM23.4843 11.7675H24.9442V16.4647C24.9442 17.0116 24.827 17.4722 24.5927 17.8466C24.3615 18.2209 24.0409 18.5025 23.6307 18.6913C23.2238 18.8801 22.7551 18.9745 22.2245 18.9745C21.6939 18.9745 21.2219 18.8801 20.8085 18.6913C20.3983 18.5025 20.076 18.2209 19.8417 17.8466C19.6106 17.4722 19.495 17.0116 19.495 16.4647V11.7675H20.9598V16.4647C20.9598 16.7837 21.0103 17.0441 21.1112 17.246C21.2121 17.4478 21.357 17.5959 21.5458 17.6903C21.7378 17.7847 21.9641 17.8319 22.2245 17.8319C22.4914 17.8319 22.7177 17.7847 22.9032 17.6903C23.092 17.5959 23.2352 17.4478 23.3329 17.246C23.4338 17.0441 23.4843 16.7837 23.4843 16.4647V11.7675Z" fill="white"/>
</svg>
